<svg width="268" height="178" viewBox="0 0 268 178" fill="none" xmlns="http://www.w3.org/2000/svg">
<path d="M267.228 68.72H225.838L217.408 43.43L207.448 87.88L192.888 23L182.158 80.99L172.818 46.5L164.528 74.09H113.178" stroke="#001E2B" stroke-linecap="round" stroke-linejoin="round"/>
<path d="M85.3882 110.59L114.878 86.74C118.218 84.0846 120.71 80.5117 122.048 76.46C127.468 59.46 112.048 41.31 93.8382 48.46C88.9182 50.39 85.3882 56.8401 85.3882 56.8401C85.3882 56.8401 81.8582 50.39 76.9382 48.46C58.7082 41.33 43.3081 59.46 48.7281 76.46C50.0661 80.5117 52.5582 84.0846 55.8982 86.74L85.3882 110.59Z" fill="#001E2B"/>
<path d="M81.7581 106.97L111.248 83.1198C114.594 80.4635 117.09 76.8868 118.428 72.83C123.838 55.83 108.428 37.69 90.2181 44.83C85.2881 46.76 81.7581 53.2098 81.7581 53.2098C81.7581 53.2098 78.2381 46.76 73.3081 44.83C55.0881 37.7 39.6881 55.83 45.0981 72.83C46.4366 76.8868 48.9324 80.4635 52.2781 83.1198L81.7581 106.97Z" fill="#006CFA" stroke="#001E2B" stroke-miterlimit="10"/>
<path d="M187.378 89.3101H158.828C158.488 89.3101 158.151 89.243 157.837 89.1128C157.523 88.9827 157.237 88.7918 156.997 88.5513C156.756 88.3108 156.566 88.0254 156.435 87.7112C156.305 87.397 156.238 87.0601 156.238 86.72V58.22C156.24 57.8782 156.173 57.5395 156.043 57.2234C155.913 56.9074 155.721 56.6204 155.48 56.3787C155.238 56.137 154.951 55.9454 154.635 55.8152C154.319 55.685 153.98 55.6186 153.638 55.6199H131.558C130.869 55.6199 130.207 55.894 129.72 56.3816C129.232 56.8692 128.958 57.5304 128.958 58.22V86.76C128.958 87.1002 128.891 87.437 128.761 87.7512C128.631 88.0655 128.44 88.3508 128.2 88.5913C127.959 88.8318 127.674 89.0227 127.359 89.1529C127.045 89.283 126.708 89.3499 126.368 89.3499H97.8583C97.1687 89.3499 96.5074 89.624 96.0198 90.1116C95.5322 90.5992 95.2583 91.2604 95.2583 91.95V113.95C95.2609 114.639 95.5357 115.299 96.0227 115.786C96.5097 116.273 97.1695 116.547 97.8583 116.55H126.398C127.085 116.55 127.744 116.823 128.23 117.309C128.715 117.794 128.988 118.453 128.988 119.14V147.68C128.988 148.37 129.262 149.031 129.75 149.519C130.237 150.006 130.899 150.28 131.588 150.28H153.638C153.98 150.281 154.319 150.215 154.635 150.085C154.951 149.955 155.238 149.763 155.48 149.522C155.721 149.28 155.913 148.993 156.043 148.677C156.173 148.36 156.24 148.022 156.238 147.68V119.14C156.238 118.453 156.511 117.794 156.997 117.309C157.483 116.823 158.141 116.55 158.828 116.55H187.378C188.066 116.547 188.725 116.272 189.21 115.785C189.696 115.298 189.968 114.638 189.968 113.95V91.95C189.975 91.6057 189.913 91.2634 189.786 90.9434C189.658 90.6234 189.469 90.332 189.228 90.0862C188.986 89.8404 188.699 89.645 188.381 89.5117C188.064 89.3785 187.723 89.31 187.378 89.3101Z" fill="white" stroke="#001E2B" stroke-linecap="round" stroke-linejoin="round"/>
<path d="M249.328 122.48H223.058V154.22H249.328C251.412 154.22 253.476 153.81 255.401 153.012C257.327 152.214 259.076 151.045 260.55 149.572C262.024 148.098 263.193 146.349 263.99 144.423C264.788 142.498 265.198 140.434 265.198 138.35C265.198 136.266 264.788 134.202 263.99 132.277C263.193 130.351 262.024 128.602 260.55 127.128C259.076 125.655 257.327 124.486 255.401 123.688C253.476 122.89 251.412 122.48 249.328 122.48V122.48Z" fill="white" stroke="#001E2B" stroke-linecap="round" stroke-linejoin="round"/>
<path d="M196.788 122.48C192.579 122.48 188.542 124.152 185.566 127.128C182.59 130.104 180.918 134.141 180.918 138.35C180.918 142.559 182.59 146.596 185.566 149.572C188.542 152.548 192.579 154.22 196.788 154.22H223.058V122.48H196.788Z" fill="#A6FFEC" stroke="#001E2B" stroke-miterlimit="10"/>
<path d="M182.298 144.8C185.918 147.407 190.258 148.825 194.718 148.86H248.718C253.378 148.86 264.378 147.54 264.378 133.46C266.378 145.32 261.448 154.22 249.278 154.22H196.738C196.738 154.22 183.668 151.22 182.298 144.8Z" fill="#001E2B"/>
</svg>
