<svg width="473" height="473" viewBox="0 0 473 473" fill="none" xmlns="http://www.w3.org/2000/svg">
<path fill-rule="evenodd" clip-rule="evenodd" d="M131.218 197.11C130.151 188.39 126.061 181.271 121.97 181.271C117.524 181.271 113.79 187.5 112.367 197.11H111.656C102.941 195.331 98.1397 192.661 98.1397 189.458C98.1397 184.653 108.455 180.915 121.259 180.915C134.419 180.915 145.445 184.653 145.445 189.458C145.445 192.661 139.932 195.865 131.218 197.11ZM162.696 204.051C162.696 189.102 144.734 177.534 121.615 177.534C98.8511 177.534 80.8892 188.924 80.8892 203.695C80.8892 218.822 98.8511 230.39 121.97 230.39C144.378 230.39 162.696 218.822 162.696 204.051ZM124.816 227.187C129.618 222.738 131.752 215.085 131.752 203.695L132.107 203.339C143.845 201.916 151.848 196.754 151.848 191.237V190.882C155.227 194.619 156.649 198.534 156.649 202.983C156.827 215.441 142.778 226.119 124.816 227.187ZM91.5596 190.526C91.2039 190.882 91.2039 190.882 91.2039 191.237C91.2039 196.754 99.2068 201.56 111.478 203.339L111.833 203.695V204.407C111.833 215.441 114.323 223.094 118.769 227.187C100.096 225.763 86.7579 215.441 86.7579 202.627C86.7579 198.534 88.1806 194.085 91.5596 190.526ZM127.483 197.822H127.128C125.705 197.822 123.749 197.822 121.97 197.822C119.658 197.822 117.88 197.822 116.457 197.822L115.746 197.466C116.813 191.237 119.125 187.5 121.615 187.5C124.638 187.5 126.416 190.882 127.483 197.466V197.822ZM128.195 204.051C127.839 212.949 125.349 219.178 121.97 219.178C118.236 219.178 115.746 212.949 115.39 204.051H115.746C117.524 204.051 119.836 204.407 122.326 204.407C125.349 204.407 126.061 204.407 128.195 204.051Z" fill="white"/>
<path fill-rule="evenodd" clip-rule="evenodd" d="M201.999 192.661H190.261V222.737H181.725V192.661H170.343V185.72H201.999V192.661Z" fill="white"/>
<path fill-rule="evenodd" clip-rule="evenodd" d="M234.188 204.407C234.188 211.704 229.742 216.865 223.518 216.865C216.938 216.865 212.492 212.06 212.492 204.407C212.847 197.11 216.938 191.949 223.518 191.949C229.92 191.949 234.188 197.11 234.188 204.407ZM243.08 204.407C243.08 193.373 234.188 184.653 223.518 184.653C212.492 184.653 203.777 193.373 203.777 204.763C203.777 215.441 212.669 224.339 223.34 224.339C234.544 224.161 243.08 215.441 243.08 204.407Z" fill="white"/>
<path fill-rule="evenodd" clip-rule="evenodd" d="M266.911 209.212V222.737H258.374V209.212L243.792 185.72H253.217L262.465 201.025L272.068 185.72H281.849L266.911 209.212Z" fill="white"/>
<path fill-rule="evenodd" clip-rule="evenodd" d="M312.083 204.407C312.083 211.704 307.992 216.865 301.412 216.865C294.832 216.865 290.742 212.06 290.742 204.407C290.742 197.11 295.188 191.949 301.768 191.949C307.992 191.949 312.083 197.11 312.083 204.407ZM321.152 204.407C321.152 193.373 312.438 184.653 301.412 184.653C290.742 184.653 281.85 193.373 281.85 204.763C281.85 215.441 290.386 224.339 301.412 224.339C312.438 224.339 321.152 215.441 321.152 204.407Z" fill="white"/>
<path fill-rule="evenodd" clip-rule="evenodd" d="M354.586 192.661H342.849V222.737H334.312V192.661H323.108V185.72H354.586V192.661Z" fill="white"/>
<path fill-rule="evenodd" clip-rule="evenodd" d="M372.371 193.729L377.528 207.966H366.857L372.371 193.729ZM377.528 185.72H367.213L352.097 222.737H361.344L364.368 214.551H380.196L383.575 222.737H392.644L377.528 185.72Z" fill="white"/>
<path fill-rule="evenodd" clip-rule="evenodd" d="M80 251.621H393V295.601H80V251.621ZM96.0791 264.923H102.939L105.619 275.22L108.299 264.923H115.159V281.764H110.872V268.892L107.549 281.764H103.69L100.367 268.892V281.764H96.0791V264.923ZM123.091 278.975H128.987L129.844 281.764H135.311L128.88 264.923H123.199L116.874 281.764H122.234L123.091 278.975ZM126.093 269.213L127.915 275.328H124.163L126.093 269.213ZM134.347 264.923H150.211V269.106H144.851V281.764H139.599V269.106H134.239V264.923H134.347ZM166.611 264.923H152.676V281.764H166.826V278.009H157.822V274.684H165.968V271.251H157.822V268.57H166.611V264.923ZM170.042 281.763V264.922H178.724C180.332 264.922 181.618 265.029 182.369 265.351C183.119 265.673 183.869 266.102 184.405 266.853C184.941 267.604 185.156 268.462 185.156 269.642C185.156 270.607 184.941 271.358 184.512 272.109C184.084 272.86 183.655 273.182 183.012 273.611C182.583 273.933 181.94 274.147 181.19 274.255C181.833 274.469 182.261 274.684 182.583 274.898C182.715 274.964 182.848 275.113 183.031 275.318L183.031 275.318L183.031 275.318L183.031 275.318L183.032 275.318C183.145 275.445 183.277 275.593 183.441 275.756C183.533 275.88 183.626 275.994 183.713 276.103L183.713 276.103C183.929 276.371 184.115 276.6 184.191 276.829L186.763 281.763H180.761L177.974 276.614C177.652 275.971 177.331 275.542 177.009 275.327C176.946 275.296 176.886 275.265 176.827 275.234C176.482 275.055 176.18 274.898 175.723 274.898H175.294V281.763H170.042ZM175.294 271.68H177.438C177.595 271.68 177.924 271.623 178.341 271.55L178.341 271.55L178.341 271.55L178.342 271.55L178.343 271.549C178.496 271.523 178.66 271.494 178.831 271.466C179.153 271.358 179.474 271.251 179.689 270.929C179.903 270.607 180.01 270.286 180.01 269.964C180.01 269.427 179.796 268.998 179.474 268.677C179.153 268.355 178.51 268.247 177.545 268.247H175.294V271.68ZM193.945 264.922H188.693V281.763H193.945V264.922ZM208.202 278.974H202.306L201.449 281.763H196.089L202.413 264.922H208.094L214.419 281.763H208.952L208.202 278.974ZM207.13 275.327L205.307 269.213L203.485 275.327H207.13ZM221.601 264.922H216.348V281.763H229.747V277.687H221.601V264.922ZM240.36 264.922H245.612V270.822H251.293V264.922H256.546V281.763H251.293V274.898H245.612V281.763H240.36V264.922ZM264.692 278.974H270.588L271.338 281.763H276.805L270.48 264.922H264.799L258.475 281.763H263.834L264.692 278.974ZM267.586 269.32L269.408 275.327V275.434H265.764L267.586 269.32ZM278.734 264.922H283.558L289.882 274.255V264.922H294.813V281.763H289.882L283.665 272.538V281.763H278.734V264.922ZM306.282 264.922H298.564V281.871H306.282C307.247 281.871 308.211 281.763 309.391 281.441C310.248 281.12 310.998 280.691 311.749 280.047C312.499 279.403 313.035 278.545 313.464 277.58C313.893 276.614 314.107 275.22 314.107 273.396C314.107 272.216 314 271.144 313.678 270.071C313.464 269.106 313.035 268.14 312.392 267.389C311.749 266.531 310.998 265.995 310.034 265.566C309.069 265.137 307.783 264.922 306.282 264.922ZM303.817 277.902V268.784H305.21C306.604 268.784 307.568 269.106 308.104 269.749C308.64 270.393 308.962 271.573 308.962 273.396C308.962 274.684 308.747 275.649 308.533 276.293C308.319 276.936 307.997 277.365 307.461 277.58C306.925 277.794 306.175 277.902 305.103 277.902H303.817ZM317.109 264.922H322.361V277.687H330.508V281.763H317.109V264.922ZM338.44 264.923H333.187V281.764H338.44V264.923ZM342.406 264.923H347.229L353.554 274.255V264.923H358.484V281.764H353.554L347.229 272.539V281.764H342.298V264.923H342.406ZM370.704 272.109V275.542H374.134V277.151C373.596 277.51 373.057 277.719 372.581 277.904C372.489 277.94 372.399 277.974 372.312 278.009C371.776 278.116 371.133 278.224 370.597 278.224C369.311 278.224 368.346 277.795 367.703 277.044C366.953 276.186 366.631 274.898 366.631 273.075C366.631 271.358 366.953 270.071 367.703 269.32C368.453 268.57 369.311 268.14 370.49 268.14C371.24 268.14 371.883 268.355 372.419 268.677C372.955 269.106 373.277 269.535 373.491 270.179L378.529 269.32C378.208 268.248 377.779 267.39 377.136 266.639C376.6 265.888 375.85 265.351 374.885 265.03C373.92 264.708 372.527 264.493 370.704 264.493C368.775 264.493 367.274 264.815 366.095 265.351C364.594 266.102 363.522 267.068 362.772 268.462C362.022 269.857 361.593 271.466 361.593 273.289C361.593 275.006 362.022 276.507 362.665 277.902C363.308 279.189 364.273 280.262 365.559 280.905C366.845 281.656 368.453 281.978 370.49 281.978C372.098 281.978 373.491 281.871 374.67 281.442C375.85 281.013 377.243 280.369 378.744 279.296V272.109H370.704Z" fill="white"/>
</svg>
