<svg width="268" height="178" viewBox="0 0 268 178" fill="none" xmlns="http://www.w3.org/2000/svg">
<path d="M267.438 67.7888C267.391 72.6613 266.38 77.4762 264.465 81.9566C262.55 86.437 259.767 90.4945 256.278 93.8953L230.347 67.3694L267.438 67.7888Z" fill="#001E2B"/>
<path d="M176.368 32.8728L202.309 59.4476L217.733 93.1929C209.783 96.8784 200.784 97.6284 192.334 95.3101C183.883 92.9918 176.527 87.7548 171.57 80.5285C166.613 73.3022 164.377 64.5539 165.257 55.8353C166.137 47.1168 170.077 38.9918 176.378 32.9021L176.368 32.8728Z" fill="white" stroke="#001E2B" stroke-linecap="round" stroke-linejoin="round"/>
<path d="M249.078 94.3049C248.946 94.3045 248.82 94.252 248.727 94.1586L222.796 67.6227C222.728 67.5539 222.683 67.4667 222.665 67.3721C222.647 67.2775 222.657 67.1798 222.695 67.0911C222.732 67.0024 222.795 66.9268 222.876 66.8739C222.956 66.8209 223.051 66.793 223.147 66.7936L260.219 67.2228C260.283 67.222 260.346 67.2347 260.405 67.2599C260.464 67.2851 260.517 67.3224 260.56 67.3693C260.649 67.4609 260.698 67.5833 260.697 67.7106C260.654 72.649 259.632 77.5298 257.691 82.0711C255.751 86.6123 252.929 90.7241 249.39 94.1684C249.305 94.2486 249.194 94.2967 249.078 94.3049V94.3049Z" fill="#FFC010"/>
<path d="M223.147 67.2522L260.219 67.6814C260.171 72.5537 259.16 77.3685 257.245 81.8487C255.329 86.329 252.547 90.3864 249.059 93.7879L223.147 67.2522ZM223.147 66.2766C222.955 66.2755 222.766 66.3315 222.605 66.4374C222.444 66.5433 222.318 66.6945 222.243 66.8718C222.168 67.0492 222.147 67.2447 222.183 67.4339C222.219 67.6232 222.31 67.7975 222.445 67.9351L248.376 94.4708C248.466 94.5629 248.574 94.6363 248.693 94.6866C248.812 94.7368 248.939 94.763 249.068 94.7635V94.7635C249.324 94.7624 249.57 94.6608 249.751 94.4805C253.337 90.9944 256.196 86.8318 258.162 82.2334C260.128 77.635 261.162 72.6921 261.205 67.6912C261.209 67.4332 261.111 67.1842 260.932 66.9985C260.841 66.9064 260.733 66.833 260.615 66.7828C260.496 66.7325 260.368 66.7064 260.239 66.7058L223.167 66.2766H223.147Z" fill="#001E2B"/>
<path d="M228.834 33.4873C232.246 36.9637 234.936 41.081 236.749 45.6018C238.563 50.1226 239.463 54.9575 239.4 59.8279L202.328 59.4085L228.834 33.4873Z" fill="white" stroke="#001E2B" stroke-linecap="round" stroke-linejoin="round"/>
<path d="M202.309 59.4476L228.24 85.9736C225.179 88.9708 221.62 91.4137 217.723 93.193L202.299 59.4476H202.309Z" fill="white" stroke="#001E2B" stroke-linecap="round" stroke-linejoin="round"/>
<path d="M228.835 33.4873L202.309 59.4476L176.368 32.9021C179.852 29.4938 183.973 26.8059 188.496 24.992C193.019 23.178 197.856 22.2737 202.729 22.3308C207.602 22.3879 212.416 23.405 216.896 25.3245C221.375 27.2439 225.432 30.0277 228.835 33.5166V33.4873Z" fill="white" stroke="#001E2B" stroke-linecap="round" stroke-linejoin="round"/>
<path d="M224.718 100.041L242.698 100.002" stroke="#001E2B" stroke-linecap="round" stroke-linejoin="round"/>
<path d="M224.738 106.227L242.718 106.178" stroke="#001E2B" stroke-linecap="round" stroke-linejoin="round"/>
<path d="M224.757 112.402L242.727 112.363" stroke="#001E2B" stroke-linecap="round" stroke-linejoin="round"/>
<path d="M163.237 50.7162H107.687C101.313 50.7162 96.146 55.8833 96.146 62.2573V166.459C96.146 172.833 101.313 178 107.687 178H163.237C169.611 178 174.778 172.833 174.778 166.459V62.2573C174.778 55.8833 169.611 50.7162 163.237 50.7162Z" fill="#001E2B"/>
<path d="M159.091 47.6138H103.541C97.1671 47.6138 92 52.7809 92 59.1549V163.356C92 169.73 97.1671 174.898 103.541 174.898H159.091C165.465 174.898 170.632 169.73 170.632 163.356V59.1549C170.632 52.7809 165.465 47.6138 159.091 47.6138Z" fill="white" stroke="#001E2B" stroke-linecap="round" stroke-linejoin="round"/>
<path d="M96.4097 146.011V60.267C96.4097 58.0419 97.2936 55.9077 98.867 54.3342C100.44 52.7608 102.574 51.877 104.8 51.877H157.832C158.935 51.8757 160.027 52.0918 161.046 52.5129C162.065 52.934 162.991 53.5517 163.771 54.3309C164.551 55.1101 165.17 56.0355 165.592 57.054C166.014 58.0726 166.232 59.1644 166.232 60.267V146.011" stroke="#001E2B" stroke-linecap="round" stroke-linejoin="round"/>
<path d="M92 150.303V164.332C92 167.134 93.1131 169.821 95.0946 171.803C97.076 173.784 99.7634 174.898 102.566 174.898H160.066C161.454 174.898 162.828 174.624 164.109 174.093C165.391 173.562 166.556 172.784 167.537 171.803C168.518 170.822 169.296 169.657 169.827 168.375C170.358 167.093 170.632 165.719 170.632 164.332V150.303H92Z" fill="#00EA7D" stroke="#001E2B" stroke-miterlimit="10"/>
<path d="M109.648 117.514H101.648V132.899H109.648V117.514Z" fill="#FFEEA9" stroke="#001E2B" stroke-linecap="round" stroke-linejoin="round"/>
<path d="M126.047 106.256H118.047C117.777 106.256 117.559 106.474 117.559 106.744V132.899C117.559 133.168 117.777 133.387 118.047 133.387H126.047C126.316 133.387 126.534 133.168 126.534 132.899V106.744C126.534 106.474 126.316 106.256 126.047 106.256Z" fill="#FFE212"/>
<path d="M126.037 106.744V132.899H118.047V106.744H126.037ZM126.037 105.768H118.047C117.789 105.768 117.54 105.871 117.358 106.054C117.175 106.237 117.072 106.485 117.072 106.744V132.899C117.072 133.158 117.175 133.406 117.358 133.589C117.54 133.772 117.789 133.874 118.047 133.874H126.037C126.296 133.874 126.544 133.772 126.727 133.589C126.91 133.406 127.013 133.158 127.013 132.899V106.744C127.013 106.485 126.91 106.237 126.727 106.054C126.544 105.871 126.296 105.768 126.037 105.768Z" fill="#001E2B"/>
<path d="M142.438 97.7976H134.438C134.169 97.7976 133.95 98.016 133.95 98.2854V132.899C133.95 133.168 134.169 133.387 134.438 133.387H142.438C142.707 133.387 142.926 133.168 142.926 132.899V98.2854C142.926 98.016 142.707 97.7976 142.438 97.7976Z" fill="#FFC010"/>
<path d="M142.437 98.2855V132.899H134.437V98.2855H142.437ZM142.437 97.3099H134.437C134.179 97.3099 133.931 97.4126 133.748 97.5955C133.565 97.7785 133.462 98.0268 133.462 98.2855V132.899C133.462 133.158 133.565 133.406 133.748 133.589C133.931 133.772 134.179 133.875 134.437 133.875H142.437C142.696 133.875 142.944 133.772 143.127 133.589C143.31 133.406 143.413 133.158 143.413 132.899V98.2855C143.413 98.0268 143.31 97.7785 143.127 97.5955C142.944 97.4126 142.696 97.3099 142.437 97.3099Z" fill="#001E2B"/>
<path d="M158.837 90.8809H150.837C150.568 90.8809 150.349 91.0993 150.349 91.3686V132.909C150.349 133.178 150.568 133.397 150.837 133.397H158.837C159.106 133.397 159.324 133.178 159.324 132.909V91.3686C159.324 91.0993 159.106 90.8809 158.837 90.8809Z" fill="#FF9F10"/>
<path d="M158.827 91.3588V132.899H150.827V91.3588H158.827ZM158.827 90.3832H150.827C150.568 90.3832 150.32 90.486 150.137 90.669C149.954 90.8519 149.852 91.1 149.852 91.3588V132.899C149.852 133.158 149.954 133.406 150.137 133.589C150.32 133.772 150.568 133.875 150.827 133.875H158.827C159.086 133.875 159.334 133.772 159.517 133.589C159.7 133.406 159.802 133.158 159.802 132.899V91.3588C159.802 91.1 159.7 90.8519 159.517 90.669C159.334 90.486 159.086 90.3832 158.827 90.3832Z" fill="#001E2B"/>
<g style="mix-blend-mode:multiply">
<g style="mix-blend-mode:multiply">
<path d="M141.014 39.6043C139.969 37.933 138.517 36.5549 136.793 35.5995C135.07 34.6441 133.131 34.1428 131.161 34.1428C129.19 34.1428 127.251 34.6441 125.528 35.5995C123.804 36.5549 122.352 37.933 121.307 39.6043" stroke="#001E2B" stroke-linecap="round" stroke-linejoin="round"/>
</g>
<g style="mix-blend-mode:multiply">
<path d="M141.014 39.6043C139.969 37.933 138.517 36.5549 136.793 35.5995C135.07 34.6441 133.131 34.1428 131.161 34.1428C129.19 34.1428 127.251 34.6441 125.528 35.5995C123.804 36.5549 122.352 37.933 121.307 39.6043" stroke="black" stroke-linecap="round" stroke-linejoin="round"/>
</g>
</g>
<g style="mix-blend-mode:multiply">
<path d="M100.478 15.4489C104.187 10.9026 108.867 7.24492 114.175 4.74465C119.483 2.24438 125.283 0.96519 131.15 1.00072C137.096 1.08235 142.951 2.46418 148.305 5.04952C153.66 7.63485 158.383 11.3609 162.144 15.9659" stroke="#001E2B" stroke-linecap="round" stroke-linejoin="round"/>
</g>
<g style="mix-blend-mode:multiply">
<path d="M148.71 32.4532C146.946 29.4188 144.424 26.8942 141.391 25.1264C138.359 23.3586 134.919 22.4081 131.409 22.3678C127.9 22.3275 124.439 23.1986 121.367 24.8963C118.295 26.594 115.716 29.06 113.882 32.0531" stroke="#001E2B" stroke-linecap="round" stroke-linejoin="round"/>
</g>
<g style="mix-blend-mode:multiply">
<path d="M155.54 24.395C152.865 20.4619 149.277 17.2344 145.084 14.9887C140.891 12.7429 136.217 11.5456 131.46 11.4986C126.704 11.4517 122.007 12.5565 117.77 14.719C113.534 16.8816 109.883 20.0374 107.131 23.917" stroke="#001E2B" stroke-linecap="round" stroke-linejoin="round"/>
</g>
</svg>
